<?xml version="1.0" encoding="utf-8"?>
<!-- Generator: Adobe Illustrator 25.0.0, SVG Export Plug-In . SVG Version: 6.00 Build 0)  -->
<svg version="1.1" id="Layer_1" xmlns="http://www.w3.org/2000/svg" xmlns:xlink="http://www.w3.org/1999/xlink" x="0px" y="0px"
	 viewBox="0 0 30 30" style="enable-background:new 0 0 30 30;" xml:space="preserve">
<style type="text/css">
	.white-svg-new{fill:#FFFFFF;}
</style>
<path class="white-svg-new" d="M29.2,6.5h-4c-1,0-1.9,0.6-2.2,1.6l-0.1,0.2l-0.1,0.2h-0.2h-0.2H0.8c-0.2,0-0.4,0.2-0.4,0.4
	c0,0.2,0.2,0.4,0.4,0.4h21.6h0.2h0.2l0.1,0.2l0.1,0.2c0.3,1,1.2,1.6,2.2,1.6h4c0.2,0,0.4-0.2,0.4-0.4v-4C29.6,6.7,29.4,6.5,29.2,6.5
	z M28.7,7.5v0.4v2v0.4v0.2h-0.2h-0.4h-3c-0.9,0-1.6-0.7-1.6-1.6c0-0.9,0.7-1.6,1.6-1.6h3h0.4h0.2V7.5z"/>
<path class="white-svg-new" d="M29.2,2.5H7.6H7.3H7.2L7.1,2.4L7,2.1c-0.3-1-1.2-1.6-2.2-1.6h-4C0.6,0.5,0.4,0.7,0.4,1v4c0,0.2,0.2,0.4,0.4,0.4
	h4c1,0,1.9-0.6,2.2-1.6l0.1-0.2l0.1-0.2h0.2h0.2h21.6c0.2,0,0.4-0.2,0.4-0.4c0-0.1,0-0.2-0.1-0.3C29.4,2.6,29.3,2.5,29.2,2.5z
	 M4.8,4.5h-3H1.4H1.2V4.3V3.9v-2V1.6V1.4h0.2h0.4h3c0.9,0,1.6,0.7,1.6,1.6C6.3,3.8,5.6,4.5,4.8,4.5z"/>
<path class="white-svg-new" d="M29.3,22.3c0,0-0.1,0-0.1-0.1l0,0l-0.1,0l-0.3-0.1L28.6,22l0.1-0.2l0.1-0.3c0.2-0.4,0.3-0.8,0.3-1.1
	c0.2-1.4-0.2-2.9-1.2-4c-0.8-1-2-1.5-3.1-1.5c-0.2,0-0.4,0.2-0.4,0.4c0,1.4-1.1,2.6-2.6,2.6H8.1c-1.4,0-2.6-1.1-2.6-2.6
	c0-0.2-0.2-0.4-0.4-0.4c-1.2,0-2.3,0.6-3.1,1.5c-1,1.1-1.4,2.6-1.2,4c0.1,0.4,0.2,0.8,0.3,1.1l0.1,0.3L1.4,22l-0.2,0.1l-0.3,0.1
	c0,0-0.1,0-0.1,0.1l-0.1,0c-0.2,0.1-0.3,0.3-0.2,0.5c0.1,0.1,0.2,0.2,0.4,0.2c0.1,0,0.1,0,0.2,0c0.7-0.3,1.4-0.5,2.1-0.5
	c1,0,1.9,0.3,2.7,0.8c1,0.6,2.1,1,3.2,1s2.2-0.3,3.2-1c0.8-0.5,1.8-0.8,2.7-0.8c1,0,1.9,0.3,2.7,0.8c1,0.6,2.1,1,3.2,1
	c1.1,0,2.2-0.3,3.2-1c0.8-0.5,1.8-0.8,2.7-0.8c0.7,0,1.5,0.2,2.1,0.5c0.1,0,0.1,0,0.2,0c0.2,0,0.3-0.1,0.4-0.2
	C29.6,22.6,29.5,22.4,29.3,22.3z M28.4,20.2c-0.1,0.4-0.2,0.9-0.5,1.3l-0.1,0.2l-0.1,0.1l-0.1,0l-0.2,0c-0.2,0-0.3,0-0.5,0
	c-1.1,0-2.2,0.3-3.2,1c-0.8,0.5-1.8,0.8-2.7,0.8c-1,0-1.9-0.3-2.7-0.8c-1-0.6-2.1-1-3.2-1s-2.2,0.3-3.2,1c-0.8,0.5-1.8,0.8-2.7,0.8
	c-1,0-1.9-0.3-2.7-0.8c-0.9-0.6-2.1-1-3.2-1c-0.2,0-0.3,0-0.5,0l-0.2,0l-0.1,0l-0.1-0.1l-0.1-0.2c-0.2-0.4-0.4-0.9-0.5-1.3
	c-0.2-1.2,0.2-2.4,1-3.4c0.4-0.5,0.9-0.9,1.5-1.1l0.4-0.1l0.2-0.1l0.1,0.2l0.1,0.4C5,16.8,5.5,17.4,6,17.8c0.6,0.4,1.3,0.7,2,0.7
	h13.8c0.7,0,1.4-0.2,2-0.7c0.6-0.4,1-1,1.2-1.7l0.1-0.4l0.1-0.2l0.2,0.1l0.4,0.1c0.6,0.2,1.1,0.6,1.5,1.1
	C28.2,17.8,28.6,19,28.4,20.2z"/>
<path class="white-svg-new" d="M29.3,26.2c-0.8-0.4-1.6-0.6-2.5-0.6c-1.2,0-2.3,0.3-3.2,1c-0.8,0.5-1.8,0.8-2.7,0.8c-1,0-1.9-0.3-2.7-0.8
	c-1-0.6-2.1-1-3.2-1s-2.2,0.3-3.2,1c-0.8,0.5-1.8,0.8-2.7,0.8c-1,0-1.9-0.3-2.7-0.8c-0.9-0.6-2-1-3.2-1c-0.9,0-1.7,0.2-2.5,0.6
	c-0.2,0.1-0.3,0.3-0.2,0.5C0.5,26.9,0.7,27,0.8,27C0.9,27,1,27,1,27c0.7-0.3,1.4-0.5,2.1-0.5c1,0,1.9,0.3,2.7,0.8c1,0.6,2.1,1,3.2,1
	c1.1,0,2.2-0.3,3.2-1c0.8-0.5,1.8-0.8,2.7-0.8c1,0,1.9,0.3,2.7,0.8c1,0.6,2.1,1,3.2,1s2.2-0.3,3.2-1c0.8-0.5,1.8-0.8,2.7-0.8
	c0.7,0,1.5,0.2,2.1,0.5c0.1,0,0.1,0,0.2,0c0.2,0,0.3-0.1,0.4-0.2C29.6,26.6,29.5,26.3,29.3,26.2z"/>
</svg>
