<?xml version="1.0" encoding="utf-8"?>
<!-- Generator: Adobe Illustrator 25.0.0, SVG Export Plug-In . SVG Version: 6.00 Build 0)  -->
<svg version="1.1" id="Layer_1" xmlns="http://www.w3.org/2000/svg" xmlns:xlink="http://www.w3.org/1999/xlink" x="0px" y="0px"
	 viewBox="0 0 30 30" style="enable-background:new 0 0 30 30;" xml:space="preserve">
<style type="text/css">
	.st0{fill:#FFFFFF;}
</style>
<g>
	<path class="st0" d="M29.2,6.4h-4c-1.1,0-2,0.7-2.3,1.7l-0.2,0.3H0.8c-0.3,0-0.5,0.3-0.5,0.5s0.3,0.5,0.5,0.5h21.9l0.2,0.3
		c0.3,1,1.2,1.7,2.3,1.7h4c0.3,0,0.5-0.3,0.5-0.5v-4C29.7,6.6,29.5,6.4,29.2,6.4z M28.6,7.4v3h-3.5c-0.8,0-1.5-0.6-1.5-1.5
		s0.6-1.5,1.5-1.5H28.6z"/>
	<path class="st0" d="M0.8,5.5h4c1.1,0,2-0.7,2.3-1.7l0.2-0.3h21.9c0.3,0,0.5-0.3,0.5-0.5c0-0.1,0-0.3-0.1-0.4
		c-0.1-0.1-0.2-0.2-0.4-0.2H7.3l0,0L7.1,2.1c-0.3-1-1.2-1.7-2.3-1.7h-4C0.5,0.4,0.3,0.6,0.3,1v4C0.3,5.3,0.5,5.5,0.8,5.5z M1.3,4.4
		V1.5h3.5c0.8,0,1.5,0.6,1.5,1.5C6.2,3.8,5.5,4.4,4.8,4.4H1.3z"/>
	<path class="st0" d="M29.4,22.2L29.4,22.2L29.4,22.2l0-0.1h-0.2L28.9,22l-0.1,0l0.1-0.1l0.1-0.3c0.2-0.4,0.3-0.8,0.3-1.1
		c0.2-1.5-0.2-3-1.2-4.1c-0.8-1-2-1.5-3.2-1.5c-0.3,0-0.5,0.3-0.5,0.5c0,1.4-1.1,2.5-2.5,2.5H8.1c-1.4,0-2.5-1.1-2.5-2.5
		c0-0.3-0.3-0.5-0.5-0.5c-1.2,0-2.3,0.6-3.2,1.5c-1,1.1-1.4,2.6-1.2,4.1c0.1,0.4,0.2,0.8,0.3,1.1l0.1,0.3L1.2,22l-0.3,0.1
		c-0.1,0-0.1,0-0.2,0.1l-0.1,0c-0.3,0.1-0.4,0.4-0.3,0.7l0,0c0.1,0.1,0.2,0.2,0.5,0.2h0.2l0,0c0.8-0.3,1.4-0.5,2.1-0.5
		c0.9,0,1.8,0.3,2.6,0.8c1.1,0.7,2.2,1,3.3,1c1.2,0,2.3-0.3,3.3-1c0.8-0.5,1.8-0.8,2.6-0.8c0.9,0,1.8,0.3,2.6,0.8
		c1.1,0.7,2.2,1,3.3,1c1.2,0,2.3-0.3,3.3-1c0.8-0.5,1.8-0.8,2.6-0.8c0.7,0,1.4,0.2,2,0.5l0.3,0c0.3,0,0.4-0.1,0.5-0.2l0,0
		C29.7,22.6,29.6,22.3,29.4,22.2z M21,23.5c-0.9,0-1.8-0.3-2.6-0.8c-1.1-0.7-2.2-1-3.3-1c-1.2,0-2.3,0.3-3.3,1
		c-0.8,0.5-1.8,0.8-2.6,0.8c-0.9,0-1.8-0.3-2.6-0.8c-1-0.6-2.2-1-3.3-1H2.6l0,0l-0.1-0.2C2.2,21,2,20.5,1.9,20.2
		c-0.2-1.1,0.2-2.3,1-3.3c0.4-0.5,0.9-0.9,1.4-1.1l0.4-0.1l0.1,0l0,0.1L5,16.1c-0.1,0.8,0.5,1.4,1,1.8c0.7,0.5,1.4,0.7,2.1,0.7h13.8
		c0.8,0,1.5-0.2,2.1-0.7c0.6-0.4,1-1,1.3-1.8l0.1-0.4l0-0.1l0.1,0.1l0.4,0.1c0.5,0.2,1,0.5,1.4,1.1c0.9,1,1.3,2.1,1.1,3.3l0,0.1
		c-0.1,0.4-0.2,0.8-0.5,1.1l-0.1,0.2l0,0h-0.7c-1.2,0-2.3,0.3-3.3,1C22.9,23.2,21.9,23.5,21,23.5z"/>
	<path class="st0" d="M29.4,26.1c-0.8-0.4-1.6-0.6-2.6-0.6c-1.3,0-2.4,0.3-3.3,1c-0.8,0.5-1.8,0.8-2.6,0.8c-0.9,0-1.8-0.3-2.6-0.8
		c-1.1-0.7-2.2-1-3.3-1c-1.2,0-2.3,0.3-3.3,1C11,27,10,27.3,9.1,27.3c-0.9,0-1.8-0.3-2.6-0.8c-1-0.7-2.1-1-3.3-1
		c-0.9,0-1.7,0.2-2.6,0.6c-0.1,0.1-0.2,0.2-0.3,0.3c0,0.1,0,0.2,0,0.3c0,0.2,0.3,0.4,0.4,0.4H1l0,0c0.8-0.3,1.4-0.5,2.1-0.5
		c0.9,0,1.8,0.3,2.6,0.8c1.1,0.7,2.2,1,3.3,1c1.2,0,2.3-0.3,3.3-1c0.8-0.5,1.8-0.8,2.6-0.8c0.9,0,1.8,0.3,2.6,0.8
		c1.1,0.7,2.2,1,3.3,1c1.2,0,2.3-0.3,3.3-1c0.8-0.5,1.8-0.8,2.6-0.8c0.7,0,1.4,0.2,2,0.5l0.3,0c0.3,0,0.4-0.1,0.5-0.2
		c0.1-0.1,0.2-0.3,0.1-0.4C29.6,26.3,29.5,26.2,29.4,26.1z"/>
</g>
</svg>
